<?xml version="1.0" standalone="no"?><!DOCTYPE svg PUBLIC "-//W3C//DTD SVG 1.1//EN" "http://www.w3.org/Graphics/SVG/1.1/DTD/svg11.dtd"><svg t="1779172425174" class="icon" viewBox="0 0 1024 1024" version="1.1" xmlns="http://www.w3.org/2000/svg" p-id="2386" xmlns:xlink="http://www.w3.org/1999/xlink" width="200" height="200"><path d="M666.296 824.08c-12.56-30.72-54.224-83.312-123.576-156.384-18.616-19.552-17.456-34.448-10.704-78.896v-5.12c4.424-30.48 12.104-48.4 114.504-64.696 52.128-8.144 65.624 12.56 84.712 41.424l6.28 9.544a101 101 0 0 0 51.44 41.656c9.072 4.192 20.24 9.312 35.368 17.92 36.768 20.24 36.768 43.28 36.768 94.024v5.816a215.28 215.28 0 0 1-41.424 139.632 472.44 472.44 0 0 1-152.2 88.208c27.92-52.368 6.512-114.504 0-132.424l-1.168-0.696zM512 40.96a468.016 468.016 0 0 1 203.872 46.544 434.504 434.504 0 0 0-102.872 82.616c-7.44 10.24-13.728 19.784-19.776 28.632-19.552 29.552-29.096 42.816-46.544 44.912a200.84 200.84 0 0 1-33.752 0c-34.208-2.32-80.752-5.12-95.648 35.376-9.544 25.84-11.168 95.648 19.552 131.96 5.28 8.616 6.224 19.2 2.56 28.624a56.08 56.08 0 0 1-16.528 25.832 151.504 151.504 0 0 1-23.272-23.28 151.28 151.28 0 0 0-66.56-52.824c-10-2.792-21.176-5.12-31.88-7.44-30.256-6.288-64.24-13.504-72.152-30.496a119.16 119.16 0 0 1-5.816-46.544 175.48 175.48 0 0 0-11.168-74 70.984 70.984 0 0 0-44.456-39.568A469.64 469.64 0 0 1 512 40.96zM0 512c0 282.768 229.232 512 512 512 282.768 0 512-229.232 512-512 0-282.768-229.232-512-512-512C229.232 0 0 229.232 0 512z" p-id="2387"></path></svg>